Coordinates
version=1
nRows=7
nColumns=40
inDegrees=yes

Units are S.I. units (second, meters, Newtons, ...)
Angles are in degrees.

endheader
time	pelvis_tilt	pelvis_list	pelvis_rotation	pelvis_tx	pelvis_ty	pelvis_tz	hip_flexion_r	hip_adduction_r	hip_rotation_r	knee_angle_r	knee_angle_r_beta	ankle_angle_r	subtalar_angle_r	mtp_angle_r	hip_flexion_l	hip_adduction_l	hip_rotation_l	knee_angle_l	knee_angle_l_beta	ankle_angle_l	subtalar_angle_l	mtp_angle_l	lumbar_extension	lumbar_bending	lumbar_rotation	arm_flex_r	arm_add_r	arm_rot_r	elbow_flex_r	pro_sup_r	wrist_flex_r	wrist_dev_r	arm_flex_l	arm_add_l	arm_rot_l	elbow_flex_l	pro_sup_l	wrist_flex_l	wrist_dev_l
     41.44250000	     -3.92093502	     -4.16189113	      5.76348907	      0.85954052	      0.93275579	      0.51366587	     10.89431930	      2.88137183	    -17.74888566	     14.23024487	     14.23024487	      9.31753421	     -3.06311036	     -6.02454183	     31.33683122	     -9.31119213	      3.42264194	     50.91986383	     50.91986383	     10.41033857	    -16.04924380	      7.88878580	    -10.21441441	      5.96899823	      2.27601833	     29.91590167	    -17.37604409	    -10.08491639	     50.03503128	     45.86333171	      0.00000000	      0.00000000	     -4.62893250	     -6.70193825	     -4.15214861	     25.81653341	     45.78910713	      0.00000000	      0.00000000
     41.45585714	     -4.15144373	     -4.00515773	      6.14180887	      0.85789552	      0.93298559	      0.51363366	     10.47615232	      2.80045581	    -17.94877199	     13.67881442	     13.67881442	      9.41579732	     -3.02694161	     -6.16997920	     31.79805766	     -8.84606344	      3.27842806	     47.15969214	     47.15969214	     10.72086604	    -15.42209537	      8.02743118	    -10.13141774	      5.84579024	      2.42066720	     31.30120353	    -17.71754869	    -10.16973378	     50.76644238	     45.84637228	      0.00000000	      0.00000000	     -5.43393227	     -6.58978848	     -4.05874825	     25.59027964	     45.75928546	      0.00000000	      0.00000000
     41.46921429	     -4.35564043	     -3.90157262	      6.53511342	      0.85631762	      0.93305510	      0.51346241	     10.04875631	      2.76569688	    -18.16968926	     13.16163667	     13.16163667	      9.51306593	     -2.97170406	     -6.30389917	     32.07212009	     -8.36965698	      3.20816761	     43.13221461	     43.13221461	     11.10179139	    -14.61239976	      8.15054671	    -10.05773127	      5.79020562	      2.46013796	     32.63712009	    -18.03743899	    -10.25474977	     51.56223581	     45.82716198	      0.00000000	      0.00000000	     -6.18268460	     -6.46986171	     -3.98816566	     25.37348488	     45.73442197	      0.00000000	      0.00000000
     41.48257143	     -4.54313686	     -3.83763771	      6.91966085	      0.85484374	      0.93298607	      0.51316588	      9.62622540	      2.75873168	    -18.42439050	     12.69425695	     12.69425695	      9.63241781	     -2.90980569	     -6.46514913	     32.17824709	     -7.91286371	      3.13447807	     38.92855730	     38.92855730	     11.42945248	    -13.56294767	      8.26716233	     -9.99179230	      5.79068344	      2.43895468	     33.87215305	    -18.28803662	    -10.32315565	     52.40167948	     45.80510475	      0.00000000	      0.00000000	     -6.88412551	     -6.36877791	     -3.93558087	     25.17410418	     45.71379676	      0.00000000	      0.00000000
     41.49592857	     -4.62523115	     -3.83258952	      7.30684023	      0.85351088	      0.93290831	      0.51280866	      9.07948569	      2.82428421	    -18.75936136	     12.21747756	     12.21747756	      9.73312334	     -2.72343520	     -6.75586019	     32.05649499	     -7.51782294	      3.05519160	     34.62772689	     34.62772689	     11.60066418	    -12.30082722	      8.13071925	    -10.05831806	      5.87815591	      2.29160495	     35.01109367	    -18.39285338	    -10.35962803	     53.48238343	     45.77137704	      0.00000000	      0.00000000	     -7.59461350	     -6.31110271	     -3.88645944	     24.99867819	     45.69539527	      0.00000000	      0.00000000
     41.50928571	     -4.77397504	     -3.85452782	      7.66943651	      0.85233570	      0.93255669	      0.51240739	      8.61907908	      2.89738226	    -19.15168368	     11.77055156	     11.77055156	      9.78913239	     -2.45827991	     -7.33174439	     31.90391173	     -7.16949507	      2.83795483	     30.33240653	     30.33240653	     11.40463944	    -10.83687766	      7.17629415	     -9.99570022	      5.99752675	      2.18480083	     35.80837699	    -18.57165467	    -10.39935827	     54.99971186	     45.71747967	      0.00000000	      0.00000000	     -8.24955079	     -6.27021340	     -3.85600676	     24.96582990	     45.68884196	      0.00000000	      0.00000000
     41.52264286	     -4.98259303	     -3.86281106	      7.99336459	      0.85109845	      0.93200569	      0.51195844	      8.40192809	      2.91297967	    -19.28929140	     11.67465560	     11.67465560	     10.01688781	     -2.62546005	     -7.45323222	     31.82712273	     -6.78250240	      2.60806033	     26.36172674	     26.36172674	     11.56622325	     -9.18292084	      7.50903956	     -9.86931645	      6.02354065	      2.26294459	     36.65899654	    -18.83440897	    -10.47289102	     55.57675296	     45.70357562	      0.00000000	      0.00000000	     -8.63552506	     -6.19468253	     -3.84952237	     24.84607015	     45.68368735	      0.00000000	      0.00000000
